<svg width="51" height="21" viewBox="0 0 51 21" fill="none" xmlns="http://www.w3.org/2000/svg">
<path fill-rule="evenodd" clip-rule="evenodd" d="M50.0699 12.0287H43.3033C43.4628 13.6544 44.6465 14.1767 45.9898 14.1767C47.3666 14.1767 48.4748 13.865 49.3899 13.3764V16.173C48.2286 16.8434 46.8998 17.165 45.5616 17.0996C42.1951 17.0996 39.8276 14.9937 39.8276 10.7989C39.8276 7.26943 41.8341 4.46442 45.1167 4.46442C48.4076 4.46442 50.1203 7.22731 50.1203 10.782C50.1203 11.1189 50.0867 11.8434 50.0699 12.0287V12.0287ZM45.0999 7.2947C44.2352 7.2947 43.2781 7.90961 43.2781 9.46795H46.8461C46.8461 7.90961 45.9478 7.2947 45.0999 7.2947ZM34.379 17.0996C33.1701 17.0996 32.4313 16.5942 31.9443 16.2236L31.9276 20.1236L28.4687 20.8564V4.69186H31.6253L31.6925 5.55105C32.4246 4.85425 33.3951 4.46539 34.4042 4.46442C36.8388 4.46442 39.1224 6.65452 39.1224 10.6978C39.1224 15.1032 36.8556 17.0996 34.379 17.0996V17.0996ZM33.5814 7.53898C32.7839 7.53898 32.2886 7.82538 31.9276 8.22128L31.9443 13.3764C32.2802 13.7471 32.7671 14.0335 33.5814 14.0335C34.8575 14.0335 35.7139 12.6436 35.7139 10.7736C35.7139 8.96254 34.8407 7.53898 33.5814 7.53898V7.53898ZM23.7085 4.69186H27.1758V16.8553H23.7085V4.69186ZM23.7085 0.73284L27.1758 0V2.83028L23.7085 3.57154V0.741263V0.73284ZM20.0817 8.60876V16.8553H16.6228V4.69186H19.7291L19.8298 5.71952C20.6694 4.22857 22.4072 4.53181 22.869 4.69186V7.88434C22.4324 7.74114 20.9464 7.52213 20.0817 8.60876V8.60876ZM12.9037 12.5846C12.9037 14.6315 15.0865 13.9998 15.523 13.8144V16.6447C15.0613 16.8974 14.2301 17.0996 13.0968 17.0996C12.6244 17.1134 12.1542 17.0307 11.7147 16.8564C11.2752 16.6821 10.8756 16.42 10.5403 16.0859C10.2049 15.7518 9.94083 15.3528 9.76405 14.913C9.58727 14.4733 9.50149 14.0021 9.51194 13.528L9.52034 2.43438L12.8953 1.70996V4.69186H15.5314V7.66533H12.9037V12.593V12.5846ZM8.78155 13.1743C8.78155 15.676 6.84222 17.0996 3.97101 17.0996C2.68258 17.0986 1.40811 16.832 0.226675 16.3162V13.0058C1.38523 13.6376 2.82924 14.1093 3.97101 14.1093C4.74338 14.1093 5.2555 13.9071 5.2555 13.2669C5.2555 11.5991 0 12.2224 0 8.38133C0 5.9301 1.91414 4.46442 4.71819 4.46442C5.85996 4.46442 7.00173 4.63289 8.15189 5.09618V8.36448C7.089 7.80321 5.91063 7.49754 4.7098 7.47159C3.9878 7.47159 3.50087 7.68218 3.50087 8.2297C3.50087 9.78804 8.78155 9.04678 8.78155 13.1827V13.1743Z" fill="white"/>
</svg>
