<svg width="88" height="17" viewBox="0 0 88 17" fill="none" xmlns="http://www.w3.org/2000/svg">
<g clip-path="url(#clip0_3_3197)">
<path d="M14.8273 0C15.4147 0.972691 15.6796 1.97457 15.6796 3.24014C15.6796 7.27666 12.2428 12.5204 9.45348 16.2025H3.08247L0.527344 0.883783L6.10586 0.352758L7.45679 11.253C8.71905 9.19119 10.2767 5.95106 10.2767 3.74198C10.2767 2.53281 10.0701 1.7092 9.74725 1.03106L14.8273 0V0Z" fill="white"/>
<path d="M22.0573 6.74549C23.0839 6.74549 25.6683 6.27464 25.6683 4.80193C25.6683 4.09475 25.1696 3.74199 24.5819 3.74199C23.5537 3.74199 22.2044 4.97823 22.0573 6.74549V6.74549ZM21.9397 9.6622C21.9397 11.4605 22.937 12.166 24.2591 12.166C25.6989 12.166 27.0774 11.8132 28.8692 10.9003L28.1943 15.495C26.9319 16.1134 24.9645 16.5261 23.0548 16.5261C18.2107 16.5261 16.477 13.5806 16.477 9.89839C16.477 5.12581 19.2971 0.0582275 25.1112 0.0582275C28.3122 0.0582275 30.1022 1.85634 30.1022 4.36011C30.1025 8.39648 24.9355 9.63302 21.9397 9.6622V9.6622Z" fill="white"/>
<path d="M46.201 3.59472C46.201 4.18381 46.1119 5.03826 46.0232 5.59665L44.3492 16.2024H38.9173L40.4442 6.48029C40.4732 6.21659 40.5622 5.68571 40.5622 5.39117C40.5622 4.68399 40.1215 4.50754 39.5917 4.50754C38.8881 4.50754 38.1827 4.83126 37.713 5.0676L35.9811 16.2025H30.5186L33.0141 0.323895H37.7419L37.8018 1.59128C38.9172 0.854922 40.3859 0.0585328 42.4697 0.0585328C45.2306 0.0582304 46.201 1.47274 46.201 3.59472V3.59472Z" fill="white"/>
<path d="M62.3268 1.79646C63.8826 0.678161 65.3516 0.0582275 67.3771 0.0582275C70.1663 0.0582275 71.1364 1.47274 71.1364 3.59472C71.1364 4.18381 71.0476 5.03826 70.9589 5.59665L69.2869 16.2024H63.8535L65.4095 6.2748C65.4381 6.00943 65.4983 5.68571 65.4983 5.48037C65.4983 4.68414 65.0575 4.50753 64.5279 4.50753C63.8532 4.50753 63.1788 4.80208 62.6781 5.06759L60.9465 16.2025H55.5144L57.0705 6.27495C57.0991 6.00959 57.1575 5.68586 57.1575 5.48053C57.1575 4.68429 56.7165 4.50769 56.1887 4.50769C55.4835 4.50769 54.7797 4.83141 54.3099 5.06775L52.5767 16.2027H47.116L49.6112 0.324042H54.2813L54.428 1.64964C55.5144 0.855219 56.9819 0.058832 58.9492 0.058832C60.6526 0.0582272 61.7678 0.794739 62.3268 1.79646V1.79646Z" fill="white"/>
<path d="M81.9469 6.42207C81.9469 5.1258 81.6236 4.24202 80.6554 4.24202C78.5117 4.24202 78.0714 8.04191 78.0714 9.98578C78.0714 11.4605 78.483 12.3731 79.4509 12.3731C81.4771 12.3731 81.9469 8.36578 81.9469 6.42207V6.42207ZM72.5511 9.75111C72.5511 4.74372 75.1933 0.0582275 81.2723 0.0582275C85.853 0.0582275 87.5274 2.76915 87.5274 6.51098C87.5274 11.4603 84.9137 16.5858 78.6881 16.5858C74.0779 16.5858 72.5511 13.5512 72.5511 9.75111V9.75111Z" fill="white"/>
</g>
<defs>
<clipPath id="clip0_3_3197">
<rect width="87" height="16.5858" fill="white" transform="translate(0.527344)"/>
</clipPath>
</defs>
</svg>
