<svg width="93" height="21" viewBox="0 0 93 21" fill="none" xmlns="http://www.w3.org/2000/svg">
<g clip-path="url(#clip0_3_3354)">
<path d="M9.45909 15.2119C9.45909 15.2119 8.47723 14.0088 7.89642 13.3588L7.08051 15.281C8.25597 17.0235 9.03039 18.5309 9.45909 19.25C10.2888 17.8394 12.3217 13.663 16.5119 9.74944L16.0417 8.65695C13.3174 10.676 10.9941 13.2482 9.45909 15.2119Z" fill="white"/>
<path fill-rule="evenodd" clip-rule="evenodd" d="M51.444 15.613C51.444 16.7331 52.094 17.3139 53.1312 17.4799V20.2042C50.0335 20.1627 48.3878 18.6692 48.3878 15.8342V3.05176e-05H51.444V15.613Z" fill="white"/>
<path fill-rule="evenodd" clip-rule="evenodd" d="M61.0413 5.89117C57.2106 5.89117 54.1821 9.03036 54.1821 12.9993C54.1821 16.9682 57.1138 20.1074 60.7785 20.1074C62.6454 20.1074 64.1389 19.4021 65.024 18.3788L65.19 18.4341V19.8308H68.26V6.16775H65.19V7.12196L65.0517 7.17727C64.1251 6.41668 62.8667 5.89117 61.0413 5.89117ZM61.4146 17.549C59.119 17.549 57.2244 15.5576 57.2244 13.0131C57.2244 10.4409 59.119 8.4772 61.4146 8.4772C62.922 8.4772 64.2358 8.91972 65.1623 9.625V15.4747C64.374 16.9682 62.9497 17.549 61.4146 17.549Z" fill="white"/>
<path fill-rule="evenodd" clip-rule="evenodd" d="M70.7907 19.8723H73.8469V10.3026C74.8011 9.32077 76.1425 8.68463 77.7052 8.68463H78.3551V5.89117H77.9679C76.2946 5.89117 74.8979 6.67943 73.999 7.77192L73.8331 7.7166V6.16775H70.7769V19.8723H70.7907Z" fill="white"/>
<path fill-rule="evenodd" clip-rule="evenodd" d="M38.6798 5.89117C34.8491 5.89117 31.8068 9.04419 31.8068 12.9993C31.8068 16.9682 34.7385 20.1074 38.4032 20.1074C40.2563 20.1074 41.7636 19.4021 42.6487 18.3788L42.8146 18.4341V19.8308H45.8847V6.16775H42.8146V7.12196L42.6764 7.17727C41.7636 6.41668 40.5052 5.89117 38.6798 5.89117ZM39.0532 17.549C36.7575 17.549 34.863 15.5576 34.863 13.0131C34.863 10.4409 36.7437 8.4772 39.0532 8.4772C40.5605 8.4772 41.8743 8.91972 42.8008 9.625V15.4747C42.0126 16.9682 40.5882 17.549 39.0532 17.549Z" fill="white"/>
<path fill-rule="evenodd" clip-rule="evenodd" d="M85.809 5.89117C81.9784 5.89117 78.9498 9.03036 78.9498 12.9993C78.9498 16.9682 81.8816 20.1074 85.5463 20.1074C87.3993 20.1074 88.9067 19.4021 89.7918 18.3788L89.9577 18.4341V19.8308H93.0277V6.16775H89.9577V7.12196L89.8194 7.17727C88.8929 6.41668 87.6344 5.89117 85.809 5.89117ZM86.1824 17.549C83.8868 17.549 82.006 15.5576 82.006 13.0131C82.006 10.4409 83.8868 8.4772 86.1824 8.4772C87.6898 8.4772 89.0035 8.91972 89.93 9.625V15.4747C89.1418 16.9682 87.7174 17.549 86.1824 17.549Z" fill="white"/>
<path d="M15.5716 19.817H18.9043L15.9726 12.7918C15.1152 13.7046 14.3823 14.6034 13.7323 15.4608L15.5716 19.817Z" fill="white"/>
<path d="M28.8196 6.18158L24.5464 16.1799H24.5049H24.4773H24.4634H24.4496H24.4358H24.4081H24.3805L20.1073 6.18158H16.8022L22.9008 19.817H22.9423H25.9846H26.0123L32.1109 6.18158H28.8196Z" fill="white"/>
<path d="M10.9111 0.732971H10.8973H7.99316H7.97933L0 19.817H3.33279L9.09948 6.20925L9.37606 5.47632H9.52818L9.80476 6.20925L11.5196 10.2473C12.2802 9.48672 13.1099 8.73996 13.9811 8.03468L10.9111 0.732971Z" fill="white"/>
</g>
<defs>
<clipPath id="clip0_3_3354">
<rect width="93" height="20.2042" fill="white"/>
</clipPath>
</defs>
</svg>
