<svg width="126" height="21" viewBox="0 0 126 21" fill="none" xmlns="http://www.w3.org/2000/svg">
<path d="M12.213 16.3935L15.6276 0H19.145L17.7938 6.43953L17.8453 6.46409C18.3096 5.92903 18.8834 5.50053 19.5275 5.2077C20.1716 4.91487 20.871 4.76458 21.5781 4.76702C23.4164 4.76702 24.4591 5.85992 24.4591 7.67242C24.4455 8.37624 24.3635 9.07704 24.2143 9.7649L22.8387 16.396H19.2992L20.6235 9.97366C20.7255 9.50823 20.7772 9.03312 20.7777 8.55657C20.7777 7.85908 20.4717 7.36788 19.6811 7.36788C18.56 7.36788 17.363 8.66954 16.9029 10.7866L15.7304 16.3935H12.213Z" fill="white"/>
<path d="M36.1766 13.7532C36.5948 14.0689 37.1075 14.2325 37.6305 14.2174C39.5888 14.2174 40.9424 11.2702 40.9424 9.19496C40.9424 8.33537 40.6119 7.42912 39.5398 7.42912C38.3159 7.42912 37.1704 8.75288 36.7616 10.7545L36.1766 13.7532ZM31.1537 20.9492L33.6015 9.20724C33.883 7.88347 34.1621 6.11517 34.3163 4.9535H37.4249L37.2218 6.67268H37.2732C37.7089 6.09292 38.2702 5.62009 38.9148 5.28993C39.5593 4.95977 40.2702 4.7809 40.9938 4.76685C43.5688 4.76685 44.6116 6.69724 44.6116 8.85849C44.6116 12.7635 41.919 16.6243 37.7823 16.6243C37.0717 16.648 36.3654 16.506 35.7188 16.2092H35.6405L34.6736 20.9492H31.1537Z" fill="white"/>
<path d="M63.4031 1.97681L62.7642 5.02219H65.3392L64.8301 7.41674H62.2551L61.3371 11.6729C61.2334 12.0995 61.1735 12.5357 61.1585 12.9746C61.1585 13.5787 61.4644 13.9275 62.2037 13.9275C62.5185 13.9346 62.8334 13.919 63.146 13.8808L62.7397 16.3687C62.0564 16.5394 61.3534 16.6178 60.6493 16.602C58.5589 16.602 57.5407 15.6 57.5407 14.1461C57.5467 13.4725 57.6288 12.8019 57.7854 12.1469L58.7841 7.41674H57.2274L57.7389 5.02219H59.2933L59.7265 2.92972L63.4031 1.97681Z" fill="white"/>
<path d="M73.3728 7.46351C73.0838 7.39717 72.7881 7.36503 72.4916 7.36773C69.8676 7.36773 68.678 9.88755 68.678 12.179C68.678 13.2743 69.0623 14.0185 70.0047 14.0185C71.0499 14.0185 72.2469 12.8323 72.7829 10.251L73.3728 7.46351ZM72.3154 16.3934C72.3399 15.7401 72.4158 15.0205 72.4672 14.2518H72.3913C71.2947 16.0201 69.8162 16.6243 68.5165 16.6243C66.4016 16.6243 65.0504 15.0893 65.0504 12.8347C65.0504 8.53186 67.0772 4.92896 73.4487 4.92896C74.7499 4.9388 76.0443 5.11878 77.2991 5.46436L76.0115 11.3587C75.6814 13.0134 75.5101 14.6961 75.5 16.3836L72.3154 16.3934Z" fill="white"/>
<path d="M84.6962 1.97681L84.0573 5.02219H86.6323L86.1232 7.41674H83.5482L82.6303 11.6729C82.5284 12.0998 82.4694 12.5359 82.454 12.9746C82.454 13.5787 82.7575 13.9275 83.4992 13.9275C83.814 13.9346 84.129 13.919 84.4416 13.8808L84.0328 16.3687C83.3495 16.5394 82.6465 16.6178 81.9424 16.602C79.8545 16.602 78.8338 15.6 78.8338 14.1461C78.8398 13.4725 78.9219 12.8019 79.0786 12.1469L80.0797 7.41674H78.5254L79.0345 5.02219H80.5888L81.0221 2.92972L84.6962 1.97681Z" fill="white"/>
<path d="M107.984 16.3932L109.59 8.71847C109.896 7.3235 110.079 6.06852 110.253 5.03458H113.337L113.134 6.77829H113.186C113.66 6.15242 114.273 5.64594 114.976 5.29896C115.679 4.95197 116.453 4.77401 117.237 4.77916C119.195 4.77916 120.221 5.91626 120.221 7.70908C120.203 8.38016 120.126 9.04835 119.99 9.70575L118.59 16.4055H115.061L116.412 9.8703C116.498 9.45077 116.545 9.024 116.551 8.59567C116.551 7.87609 116.272 7.36771 115.455 7.36771C114.388 7.36771 113.11 8.62269 112.628 11.0516L111.531 16.4006L107.984 16.3932Z" fill="white"/>
<path d="M29.2127 3.56128H29.2641C30.3485 3.56128 31.2811 2.89322 31.3055 1.72166C31.3055 0.800615 30.6251 0.13501 29.5652 0.13501C28.4563 0.13501 27.5727 0.938157 27.5727 1.97463C27.5727 2.91778 28.2287 3.56128 29.2127 3.56128Z" fill="white"/>
<path d="M30.5174 4.94165H27.0905L25.5729 12.184C25.4163 12.8323 25.3341 13.4964 25.3281 14.1634C25.3281 15.6124 26.3366 16.6021 28.405 16.6021C29.1016 16.6174 29.7971 16.5398 30.4733 16.3713L30.8772 13.9154C30.5677 13.9515 30.2561 13.9663 29.9446 13.9596C29.2103 13.9596 28.9092 13.6158 28.9092 13.0165C28.9247 12.5827 28.9837 12.1516 29.0854 11.7297L30.5174 4.94165Z" fill="white"/>
<path d="M90.7519 3.56128H90.8033C91.8852 3.56128 92.8202 2.89322 92.8447 1.72166C92.8447 0.800615 92.1643 0.13501 91.1044 0.13501C89.9956 0.13501 89.1119 0.938157 89.1119 1.97463C89.1119 2.91778 89.7679 3.56128 90.7519 3.56128" fill="white"/>
<path d="M91.8584 4.94165H88.4314L86.8991 12.1914C86.7436 12.8399 86.6615 13.5039 86.6543 14.1708C86.6543 15.6198 87.6628 16.6095 89.7312 16.6095C90.4278 16.6246 91.1233 16.547 91.7996 16.3786L92.201 13.9228C91.8917 13.961 91.58 13.9766 91.2684 13.9694C90.5341 13.9694 90.2355 13.6231 90.2355 13.0239C90.2497 12.59 90.3088 12.1587 90.4117 11.737L91.8584 4.94165Z" fill="white"/>
<path d="M8.2525 7.48318C6.82545 6.63097 5.98587 5.89419 5.98587 5.04444C5.98587 4.09154 6.90378 3.30319 8.50951 3.30319C9.6771 3.27863 10.8716 3.79437 11.7283 4.24872L12.3966 1.47352L12.4113 1.40721C11.2805 0.807975 10.0183 0.502333 8.7396 0.518163C4.68855 0.510795 2.33869 2.36257 2.33869 5.55773C2.33869 7.39231 3.76819 8.78483 5.42288 9.76229C6.85238 10.5752 7.56468 10.9903 7.56468 11.926C7.56468 13.1539 6.34079 13.8342 4.91374 13.8097C3.55034 13.8097 2.12574 13.0434 1.24209 12.5547L0.527344 15.4723C1.78426 16.2006 3.20777 16.5898 4.65918 16.6021C8.51441 16.6021 11.2681 15.1481 11.2681 11.3709C11.2681 9.67142 10.1471 8.52941 8.25984 7.48318" fill="white"/>
<path d="M52.5007 7.48323C51.0737 6.62365 50.2316 5.90406 50.2316 5.04449C50.2316 4.09158 51.1495 3.30323 52.7553 3.30323C53.9228 3.27867 55.1173 3.79442 55.9741 4.24876L56.6447 1.47356L56.657 1.40725C55.5265 0.807521 54.2641 0.501848 52.9854 0.518201C48.9392 0.518201 46.5869 2.36998 46.5869 5.56514C46.5869 7.39973 48.014 8.79224 49.6711 9.7697C51.0981 10.5826 51.8104 10.9977 51.8104 11.9334C51.8104 13.1613 50.5866 13.8416 49.162 13.8171C47.7961 13.8171 46.3715 13.0508 45.4781 12.5621L44.7731 15.4724C46.031 16.1972 47.4544 16.583 48.9049 16.5923C52.7626 16.5923 55.5139 15.1384 55.5139 11.3611C55.5139 9.66164 54.3928 8.51963 52.508 7.4734" fill="white"/>
<path d="M123.026 4.05982H123.667C123.721 4.05908 123.775 4.04739 123.824 4.02544C123.874 4.0035 123.919 3.97176 123.956 3.93211C123.998 3.89434 124.031 3.84812 124.054 3.79648C124.077 3.74484 124.088 3.68895 124.088 3.63248C124.088 3.51874 124.044 3.40952 123.965 3.32728C123.887 3.24505 123.78 3.19606 123.667 3.19041H123.026V4.05982ZM122.717 5.26078V2.92517H123.667C123.859 2.92008 124.045 2.99061 124.186 3.12164C124.256 3.18614 124.312 3.2652 124.349 3.35338C124.387 3.44156 124.404 3.53678 124.401 3.63248C124.406 3.8017 124.347 3.96652 124.237 4.09495C124.127 4.22338 123.974 4.30626 123.807 4.32752L124.433 5.26078H124.049L123.447 4.33734H123.026V5.26078H122.717ZM121.738 4.08683C121.738 4.31925 121.783 4.54946 121.872 4.76428C121.96 4.9791 122.09 5.17433 122.253 5.33879C122.417 5.50325 122.612 5.63372 122.826 5.72274C123.04 5.81176 123.269 5.85757 123.501 5.85757C123.732 5.86067 123.961 5.81604 124.174 5.72647C124.387 5.6369 124.579 5.5043 124.739 5.33691C124.905 5.17423 125.035 4.97957 125.124 4.76471C125.212 4.54985 125.256 4.31924 125.253 4.08683C125.253 3.61916 125.068 3.17063 124.738 2.83994C124.409 2.50924 123.962 2.32346 123.496 2.32346C123.03 2.32346 122.582 2.50924 122.253 2.83994C121.923 3.17063 121.738 3.61916 121.738 4.08683ZM121.471 4.08683C121.47 3.81919 121.522 3.554 121.624 3.30654C121.725 3.05909 121.875 2.83425 122.064 2.645C122.252 2.45575 122.476 2.30582 122.723 2.20384C122.969 2.10187 123.234 2.04987 123.501 2.05085C123.859 2.04795 124.213 2.14121 124.524 2.321C124.83 2.49581 125.084 2.75036 125.258 3.05779C125.437 3.36994 125.53 3.72427 125.527 4.08438C125.527 4.62435 125.313 5.14221 124.933 5.52403C124.552 5.90586 124.036 6.12036 123.498 6.12036C122.96 6.12036 122.444 5.90586 122.063 5.52403C121.683 5.14221 121.469 4.62435 121.469 4.08438" fill="white"/>
<path d="M107.512 11.5184V9.286L105.571 8.99129C105.444 8.502 105.25 8.03259 104.995 7.59632L106.161 6.00979L104.587 4.43308L103.008 5.6021C102.573 5.3472 102.106 5.15225 101.62 5.0225L101.329 3.07495H99.0988L98.8051 5.0225C98.3172 5.15273 97.8488 5.34765 97.4123 5.6021L95.8335 4.43308L94.2621 6.00979L95.4272 7.59632C95.1723 8.03281 94.978 8.50212 94.8495 8.99129L92.9084 9.286V11.5184L94.8495 11.8107C94.9764 12.3012 95.1709 12.7715 95.4272 13.2081L94.2621 14.7947L95.8335 16.3714L97.4123 15.2023C97.8488 15.4568 98.3172 15.6517 98.8051 15.7819L99.0988 17.7295H101.324L101.62 15.7819C102.109 15.6539 102.577 15.4588 103.013 15.2023L104.592 16.3714L106.165 14.7947L105 13.2081C105.255 12.771 105.449 12.3008 105.576 11.8107L107.512 11.5184ZM100.21 12.852C99.726 12.852 99.2527 12.708 98.8502 12.4381C98.4477 12.1683 98.1339 11.7847 97.9487 11.3359C97.7634 10.8872 97.7149 10.3934 97.8094 9.91695C97.9038 9.44055 98.1369 9.00294 98.4793 8.65948C98.8216 8.31601 99.2577 8.0821 99.7325 7.98734C100.207 7.89258 100.7 7.94121 101.147 8.1271C101.594 8.31298 101.976 8.62776 102.245 9.03164C102.514 9.43551 102.658 9.91034 102.658 10.3961C102.658 10.7186 102.595 11.038 102.472 11.3359C102.348 11.6339 102.168 11.9046 101.941 12.1327C101.714 12.3607 101.444 12.5416 101.147 12.6651C100.85 12.7885 100.532 12.852 100.21 12.852V12.852Z" fill="white"/>
</svg>
