<svg width="110" height="22" viewBox="0 0 110 22" fill="none" xmlns="http://www.w3.org/2000/svg">
<path fill-rule="evenodd" clip-rule="evenodd" d="M44.1471 16.7742C40.036 19.824 34.0561 21.449 28.8985 21.449C21.6728 21.449 15.1946 18.7741 10.2612 14.3242C9.88742 13.9743 10.2113 13.4993 10.6847 13.7743C15.9919 16.8741 22.5448 18.7241 29.322 18.7241C33.8817 18.7241 38.9148 17.7741 43.5492 15.7992C44.2468 15.5242 44.8448 16.2742 44.1471 16.7742Z" fill="white"/>
<path fill-rule="evenodd" clip-rule="evenodd" d="M45.8664 14.8245C45.3431 14.1495 42.3781 14.4995 41.0575 14.6745C40.6589 14.7245 40.5841 14.3745 40.9579 14.1245C43.3249 12.4495 47.1869 12.9495 47.6354 13.4995C48.0839 14.0495 47.5108 17.9495 45.2933 19.7994C44.9445 20.0744 44.6205 19.9244 44.77 19.5494C45.2684 18.2745 46.3896 15.4995 45.8664 14.8245Z" fill="white"/>
<path fill-rule="evenodd" clip-rule="evenodd" d="M41.1323 2.35009V0.725174C41.1323 0.475187 41.3067 0.325195 41.531 0.325195H48.7567C48.9809 0.325195 49.1802 0.500186 49.1802 0.725174V2.1001C49.1802 2.32509 48.9809 2.62507 48.6321 3.12505L44.8947 8.47476C46.29 8.44976 47.76 8.64975 49.0058 9.34971C49.2799 9.49971 49.3547 9.74969 49.3796 9.97468V11.6996C49.3796 11.9496 49.1304 12.2246 48.8563 12.0746C46.6388 10.8996 43.6738 10.7746 41.232 12.0996C40.9828 12.2246 40.7087 11.9746 40.7087 11.7246V10.0747C40.7087 9.82469 40.7087 9.37471 40.9828 8.97473L45.3432 2.75007H41.5808C41.3316 2.75007 41.1572 2.57507 41.1323 2.35009Z" fill="white"/>
<path fill-rule="evenodd" clip-rule="evenodd" d="M14.7959 12.4493H12.6033C12.404 12.4243 12.2296 12.2743 12.2047 12.0743V0.774705C12.2047 0.549712 12.404 0.374717 12.6282 0.374717H14.6714C14.8956 0.374717 15.0451 0.549712 15.07 0.749706V2.22466H15.1198C15.6431 0.799704 16.6646 0.124725 18.0101 0.124725C19.3805 0.124725 20.2526 0.799704 20.8506 2.22466C21.3738 0.799704 22.5947 0.124725 23.8903 0.124725C24.8122 0.124725 25.8089 0.499713 26.4318 1.37469C27.1294 2.32466 26.98 3.69961 26.98 4.92457V12.0743C26.98 12.2993 26.7806 12.4743 26.5564 12.4743H24.3638C24.1395 12.4493 23.9651 12.2743 23.9651 12.0743V6.07454C23.9651 5.59955 24.0149 4.39959 23.9153 3.9496C23.7408 3.19963 23.2674 2.97464 22.6196 2.97464C22.0964 2.97464 21.5233 3.32462 21.2991 3.89961C21.0748 4.47459 21.0997 5.42456 21.0997 6.07454V12.0743C21.0997 12.2993 20.9004 12.4743 20.6762 12.4743H18.4835C18.2593 12.4493 18.0849 12.2743 18.0849 12.0743V6.07454C18.0849 4.82458 18.2842 2.94964 16.7394 2.94964C15.1697 2.94964 15.2195 4.74958 15.2195 6.07454V12.0743C15.2195 12.2493 15.0451 12.4493 14.7959 12.4493Z" fill="white"/>
<path fill-rule="evenodd" clip-rule="evenodd" d="M55.4093 0.0996094C58.6733 0.0996094 60.4174 2.92447 60.4174 6.49929C60.4174 9.94911 58.474 12.699 55.3844 12.699C52.1951 12.674 50.451 9.87412 50.451 6.37429C50.451 2.84947 52.22 0.0996094 55.4093 0.0996094ZM55.4342 2.42449C53.8147 2.42449 53.715 4.64938 53.715 6.02431C53.715 7.39924 53.6901 10.3491 55.4093 10.3491C57.1036 10.3491 57.2032 7.97421 57.2032 6.52429C57.2032 5.57433 57.1534 4.42439 56.8793 3.52444C56.6053 2.72448 56.1319 2.42449 55.4342 2.42449Z" fill="white"/>
<path fill-rule="evenodd" clip-rule="evenodd" d="M64.6532 12.4492H62.4606C62.2363 12.4242 62.0619 12.2492 62.0619 12.0492V0.724699C62.0868 0.524708 62.2612 0.349716 62.4855 0.349716H64.5286C64.7279 0.349716 64.8774 0.499709 64.9273 0.674701V2.39963H64.9771C65.6 0.849694 66.4472 0.124725 67.967 0.124725C68.9388 0.124725 69.9105 0.47471 70.5334 1.44967C71.1065 2.34963 71.1065 3.87456 71.1065 4.97451V12.0992C71.0816 12.2992 70.9072 12.4492 70.6829 12.4492H68.4903C68.291 12.4242 68.1165 12.2742 68.0916 12.0992V5.94947C68.0916 4.69953 68.2411 2.8996 66.7212 2.8996C66.198 2.8996 65.6997 3.24959 65.4505 3.79957C65.1515 4.49953 65.1017 5.17451 65.1017 5.94947V12.0492C65.0768 12.2492 64.9024 12.4492 64.6532 12.4492Z" fill="white"/>
<path fill-rule="evenodd" clip-rule="evenodd" d="M72.4769 11.5494C72.4769 10.9744 72.9503 10.5244 73.5483 10.5244C74.1462 10.5244 74.6196 10.9744 74.6196 11.5494C74.6196 12.1245 74.1462 12.5745 73.5483 12.5745C72.9503 12.5745 72.4769 12.0995 72.4769 11.5494Z" fill="white"/>
<path d="M95.7485 12.4495C95.5243 12.4495 95.3499 12.2745 95.3499 12.0495V0.724786C95.3748 0.524792 95.5243 0.374796 95.7485 0.349796H96.5459C96.7701 0.349796 96.9445 0.524792 96.9694 0.724786V2.37474C97.5425 1.07478 98.6139 0.0498047 99.9594 0.0498047H100.034H100.109C101.529 0.0498047 102.6 1.09978 102.974 2.64973C103.572 1.12478 104.718 0.0498047 106.238 0.0498047H106.313H106.413C107.484 0.0498047 108.506 0.749785 109.029 1.79976C109.552 2.79973 109.527 4.12469 109.527 5.24966V12.0495C109.527 12.2745 109.353 12.4495 109.128 12.4495H108.157C107.957 12.4495 107.783 12.2995 107.758 12.0995V5.22466C107.758 4.42468 107.808 3.54971 107.459 2.82473C107.135 2.07475 106.487 1.59976 105.79 1.57476C105.017 1.62476 104.32 2.17475 103.871 2.92473C103.273 3.8997 103.298 4.77467 103.298 5.92464V12.0995C103.273 12.2995 103.099 12.4245 102.899 12.4495H101.928C101.703 12.4495 101.529 12.2745 101.529 12.0495V4.79967C101.529 4.12469 101.479 3.34971 101.18 2.74973C100.831 2.07475 100.184 1.62476 99.5109 1.57476C98.8132 1.62476 98.1156 2.14975 97.7169 2.77473C97.1937 3.54971 97.0691 4.52468 97.0691 5.52465V12.0495C97.0691 12.2745 96.8947 12.4495 96.6704 12.4495H95.7485Z" fill="white"/>
<path d="M89.1209 12.6748C86.0063 12.6748 84.611 9.4748 84.611 6.2998C84.611 2.9498 86.2555 0.0498047 89.3949 0.0498047H89.4697H89.5444C92.6091 0.0498047 94.129 3.1498 94.129 6.3248C94.129 9.6998 92.4596 12.6748 89.2953 12.6748H89.2205H89.1209ZM89.3451 11.1248C90.3667 11.0998 91.1889 10.4498 91.6623 9.3998C92.0859 8.4498 92.1856 7.3498 92.1856 6.2998C92.1856 5.1498 92.061 3.9748 91.5377 2.9998C91.0643 2.1498 90.2421 1.5998 89.37 1.5748C88.3983 1.5998 87.5262 2.2748 87.1026 3.2748C86.704 4.1498 86.5794 5.3248 86.5794 6.2998C86.5794 7.3998 86.7289 8.6498 87.1774 9.5998C87.601 10.4998 88.4481 11.0998 89.3451 11.1248Z" fill="white"/>
<path d="M79.3786 11.0748C80.7739 11.0248 81.5213 9.8998 81.8203 8.4498C81.8702 8.2748 82.0197 8.1248 82.219 8.1248H83.1409C83.3651 8.1248 83.5645 8.2998 83.5395 8.4998C83.116 10.9748 81.621 12.6748 79.5032 12.6748H79.4284H79.3537C76.2641 12.6748 74.9186 9.5498 74.9186 6.3998C74.9186 3.2498 76.2641 0.0498047 79.3786 0.0498047H79.4533H79.5281C81.6708 0.0498047 83.2156 1.6998 83.5395 4.1998C83.5395 4.3748 83.3651 4.5498 83.1658 4.5748H82.1941C81.9948 4.5498 81.8702 4.3748 81.8203 4.1748C81.5961 2.7998 80.7988 1.6748 79.4782 1.6498C77.3853 1.7248 76.7624 4.3248 76.7624 6.3248C76.7873 8.1998 77.2856 11.0248 79.3786 11.0748Z" fill="white"/>
<path fill-rule="evenodd" clip-rule="evenodd" d="M35.3767 7.0247C35.3767 7.87466 35.4016 8.59963 34.9781 9.3746C34.6292 9.99957 34.0811 10.3746 33.4582 10.3746C32.611 10.3746 32.1127 9.72458 32.1127 8.77463C32.1127 6.89971 33.7821 6.54972 35.3767 6.54972V7.0247ZM37.5943 12.3995C37.4448 12.5245 37.2454 12.5495 37.071 12.4495C36.3484 11.8495 36.1989 11.5495 35.8003 10.9745C34.6043 12.1995 33.7322 12.5745 32.1874 12.5745C30.3436 12.5745 28.8985 11.4245 28.8985 9.14961C28.8985 7.34969 29.8702 6.14974 31.2406 5.54976C32.4366 5.02479 34.106 4.92479 35.3767 4.7748V4.49981C35.3767 3.97483 35.4265 3.34986 35.1026 2.89988C34.8286 2.49989 34.3302 2.3249 33.8817 2.3249C33.0346 2.3249 32.2871 2.74988 32.1127 3.64984C32.0629 3.84984 31.9383 4.04983 31.7389 4.04983L29.6211 3.82484C29.4467 3.77484 29.2473 3.64984 29.2972 3.37486C29.7706 0.774967 32.1127 0 34.2057 0C35.277 0 36.6724 0.274988 37.5195 1.09995C38.5909 2.09991 38.4912 3.44985 38.4912 4.89979V8.32464C38.4912 9.3496 38.9148 9.79958 39.3135 10.3746C39.463 10.5745 39.4879 10.8245 39.3135 10.9495C38.8401 11.3245 38.0427 12.0245 37.5943 12.3995Z" fill="white"/>
<path fill-rule="evenodd" clip-rule="evenodd" d="M6.59849 7.02509C6.59849 7.87506 6.6234 8.60003 6.19983 9.375C5.851 9.99998 5.30285 10.375 4.67995 10.375C3.8328 10.375 3.33448 9.72499 3.33448 8.77502C3.33448 6.90009 5.00386 6.5501 6.59849 6.5501V7.02509V7.02509ZM8.81602 12.3999C8.66652 12.5249 8.46719 12.5499 8.29278 12.4499C7.57021 11.8499 7.42072 11.5499 7.02206 10.9749C5.82609 12.1999 4.95402 12.5749 3.40922 12.5749C1.56543 12.5999 0.1203 11.4499 0.1203 9.15001C0.1203 7.35007 1.09203 6.15012 2.46241 5.55014C3.65839 5.02516 5.32776 4.92516 6.59849 4.77517V4.50018C6.59849 3.97519 6.64832 3.35022 6.32441 2.90023C6.05033 2.50025 5.55201 2.35025 5.10352 2.35025C4.25637 2.35025 3.50889 2.77524 3.33448 3.6752C3.28464 3.8752 3.16006 4.07519 2.96074 4.07519L0.842867 3.8502C0.668454 3.8002 0.469126 3.67521 0.518958 3.40021C0.967448 0.775308 3.30956 0.000335693 5.40251 0.000335693C6.47391 0.000335693 7.86921 0.275326 8.71635 1.1003C9.78775 2.10026 9.68808 3.45021 9.68808 4.90016V8.32504C9.68808 9.35 10.1117 9.79999 10.5103 10.375C10.6598 10.575 10.6847 10.825 10.5103 10.9499C10.0369 11.3249 9.23959 12.0249 8.81602 12.3999Z" fill="white"/>
</svg>
